name analog
datacolumns 19
datarows 29
range 0.309 0.323
endheader
time	ground_force_vx	ground_force_vy	ground_force_vz	ground_force_px	ground_force_py	ground_force_pz	l_ground_force_vx	l_ground_force_vy	l_ground_force_vz	l_ground_force_px	l_ground_force_py	l_ground_force_pz	ground_torque_x	ground_torque_y	ground_torque_z	l_ground_torque_x	l_ground_torque_y	l_ground_torque_z
0.309	-0.0	-0.0	-0.0	-0.0	-0.0	-0.0	2.0154459476470947	1.943077087402344	-516.395263671875	-0.0	-0.0	-0.0	-0.0	-0.0	-0.0	169200.40625	-30749.23828125	-1378.0582275390625
0.3095	-0.0	-0.0	-0.0	-0.0	-0.0	-0.0	3.4170713424682617	2.57916259765625	-517.7918701171875	-0.0	-0.0	-0.0	-0.0	-0.0	-0.0	170005.875	-31148.46875	-951.0126342773438
0.31	-0.0	-0.0	-0.0	-0.0	-0.0	-0.0	4.233612060546875	3.4445457458496094	-520.9464111328125	-0.0	-0.0	-0.0	-0.0	-0.0	-0.0	170914.0	-31804.857421875	-826.7072143554688
0.3105	-0.0	-0.0	-0.0	-0.0	-0.0	-0.0	5.123759269714356	4.7479987144470215	-522.9446411132812	-0.0	-0.0	-0.0	-0.0	-0.0	-0.0	171703.921875	-32306.66015625	-587.4794921875
0.311	-0.0	-0.0	-0.0	-0.0	-0.0	-0.0	6.475887298583984	5.189530372619629	-521.3681640625	-0.0	-0.0	-0.0	-0.0	-0.0	-0.0	172088.703125	-32669.314453125	-558.5410766601562
0.3115	-0.0	-0.0	-0.0	-0.0	-0.0	-0.0	7.921489238739014	6.005874633789063	-520.3967895507812	-0.0	-0.0	-0.0	-0.0	-0.0	-0.0	172162.515625	-32760.958984375	-207.7114715576172
0.312	-0.0	-0.0	-0.0	-0.0	-0.0	-0.0	8.916481018066406	6.0510783195495605	-519.1884765625	-0.0	-0.0	-0.0	-0.0	-0.0	-0.0	171230.125	-33100.7734375	90.3301010131836
0.3125	-0.0	-0.0	-0.0	-0.0	-0.0	-0.0	9.560819625854492	5.874281406402588	-518.1339721679688	-0.0	-0.0	-0.0	-0.0	-0.0	-0.0	170830.046875	-32991.7734375	253.4680328369141
0.313	-0.0	-0.0	-0.0	-0.0	-0.0	-0.0	9.267987251281738	6.360681056976318	-516.5787963867188	-0.0	-0.0	-0.0	-0.0	-0.0	-0.0	171034.828125	-33038.0234375	268.4053039550781
0.3135	-0.0	-0.0	-0.0	-0.0	-0.0	-0.0	8.693656921386719	6.581914901733398	-515.3580932617188	-0.0	-0.0	-0.0	-0.0	-0.0	-0.0	170772.6875	-33041.43359375	-44.16643905639648
0.314	-0.0	-0.0	-0.0	-0.0	-0.0	-0.0	7.717838287353516	6.314504623413086	-512.8173828125	-0.0	-0.0	-0.0	-0.0	-0.0	-0.0	170224.09375	-32760.630859375	-215.2208709716797
0.3145	-0.0	-0.0	-0.0	-0.0	-0.0	-0.0	6.942171573638916	6.205148696899414	-511.4176635742188	-0.0	-0.0	-0.0	-0.0	-0.0	-0.0	169700.5	-32629.974609375	-386.2270812988281
0.315	-0.0	-0.0	-0.0	-0.0	-0.0	-0.0	5.921980381011963	6.028275012969971	-511.3334045410156	-0.0	-0.0	-0.0	-0.0	-0.0	-0.0	169232.28125	-32599.240234375	-661.7696533203125
0.3155	-0.0	-0.0	-0.0	-0.0	-0.0	-0.0	5.034181594848633	6.292661666870117	-507.57855224609375	-0.0	-0.0	-0.0	-0.0	-0.0	-0.0	168884.75	-32270.85546875	-907.0773315429688
0.316	-0.0	-0.0	-0.0	-0.0	-0.0	-0.0	4.413370132446289	6.337066650390625	-507.2300415039063	-0.0	-0.0	-0.0	-0.0	-0.0	-0.0	168997.734375	-32421.71875	-974.1649169921876
0.3165	-0.0	-0.0	-0.0	-0.0	-0.0	-0.0	4.058438301086426	6.491484642028809	-508.36474609375	-0.0	-0.0	-0.0	-0.0	-0.0	-0.0	168940.75	-32484.578125	-996.599365234375
0.317	-0.0	-0.0	-0.0	-0.0	-0.0	-0.0	3.4826226234436035	6.425258636474609	-509.2365112304688	-0.0	-0.0	-0.0	-0.0	-0.0	-0.0	169258.234375	-32792.33984375	-945.1404418945312
0.3175	-0.0	-0.0	-0.0	-0.0	-0.0	-0.0	3.39338755607605	6.602643966674805	-509.7613525390625	-0.0	-0.0	-0.0	-0.0	-0.0	-0.0	169596.09375	-32593.689453125	-1086.2637939453125
0.318	-0.0	-0.0	-0.0	-0.0	-0.0	-0.0	3.458611488342285	6.955056667327881	-510.1945190429688	-0.0	-0.0	-0.0	-0.0	-0.0	-0.0	169625.640625	-32592.09765625	-1107.9896240234375
0.3185	-0.0	-0.0	-0.0	-0.0	-0.0	-0.0	3.327319383621216	7.242378234863281	-509.3236389160156	-0.0	-0.0	-0.0	-0.0	-0.0	-0.0	169725.359375	-33063.6171875	-1092.9188232421875
0.319	-0.0	-0.0	-0.0	-0.0	-0.0	-0.0	3.3484225273132324	7.374045372009277	-509.4122314453125	-0.0	-0.0	-0.0	-0.0	-0.0	-0.0	169651.015625	-33047.76953125	-900.2249145507812
0.3195	-0.0	-0.0	-0.0	-0.0	-0.0	-0.0	3.767361879348755	7.043181896209717	-508.2756042480469	-0.0	-0.0	-0.0	-0.0	-0.0	-0.0	169419.78125	-33156.16796875	-730.1925659179688
0.32	-0.0	-0.0	-0.0	-0.0	-0.0	-0.0	3.6825568675994873	6.622016906738281	-509.5909729003906	-0.0	-0.0	-0.0	-0.0	-0.0	-0.0	169658.75	-33611.12109375	-694.5750732421875
0.3205	-0.0	-0.0	-0.0	-0.0	-0.0	-0.0	3.9212045669555664	6.735132694244385	-510.18109130859375	-0.0	-0.0	-0.0	-0.0	-0.0	-0.0	169999.71875	-34003.4921875	-596.4002685546875
0.321	-0.0	-0.0	-0.0	-0.0	-0.0	-0.0	3.971822261810303	6.712448120117188	-509.6714172363281	-0.0	-0.0	-0.0	-0.0	-0.0	-0.0	169806.421875	-34060.66796875	-573.4699096679688
0.3215	-0.0	-0.0	-0.0	-0.0	-0.0	-0.0	4.040702819824219	6.889091491699219	-509.4909057617188	-0.0	-0.0	-0.0	-0.0	-0.0	-0.0	170124.65625	-34449.16796875	-521.6700439453125
0.322	-0.0	-0.0	-0.0	-0.0	-0.0	-0.0	4.573430061340332	6.889091491699219	-510.27874755859375	-0.0	-0.0	-0.0	-0.0	-0.0	-0.0	170240.203125	-34546.7578125	-328.98687744140625
0.3225	-0.0	-0.0	-0.0	-0.0	-0.0	-0.0	4.941281795501709	6.931522369384766	-509.5166015625	-0.0	-0.0	-0.0	-0.0	-0.0	-0.0	170056.40625	-34778.71484375	-181.57815551757807
0.323	-0.0	-0.0	-0.0	-0.0	-0.0	-0.0	5.164565086364746	6.712448120117188	-510.6566162109375	-0.0	-0.0	-0.0	-0.0	-0.0	-0.0	170448.296875	-34910.4140625	-194.5379180908203
